<svg width="14px" height="14px" xmlns="http://www.w3.org/2000/svg" viewBox="0 0 65 72.2"><path fill="#fefdef" d="M64.5 49.7V22.5c0-3-1.6-5.8-4.2-7.3L36.7 1.5a8.4 8.4 0 00-8.4 0L4.7 15.2a8.4 8.4 0 00-4.2 7.3v27.2c0 3 1.6 5.8 4.2 7.3l23.6 13.6a8.4 8.4 0 008.4 0L60.3 57a8.4 8.4 0 004.2-7.3"/><path fill="#444445" d="M59.3 19.4l-23.5 13a6.5 6.5 0 00-3.3 5.8v30c0 1.8 2 3 3.5 2l25.5-14c.8-.8 1.5-1.6 2-2.6V22c0-2.2-2.3-3.5-4.2-2.5z"/><path fill="#fefdef" d="M42.6 38.8c.2 0 .3 0 .3.3v2c.9-.3 1.6-.4 2.3-.2.2 0 .2.2.2.4l-.5 1.8-.2.4h-.1l-.2.1c-.3 0-1-.2-2.1.3a2.7 2.7 0 00-1.6 2.5c0 .9.4 1.2 2 1.2 2.2 0 3.2 1 3.2 3.1 0 2.2-1.1 4.5-2.9 5.9v2c0 .2-.1.5-.3.6l-1.2.7c-.2.1-.3 0-.3-.3v-2c-1 .5-2 .6-2.7.3-.2 0-.2-.2-.2-.4l.5-1.8c0-.2 0-.3.2-.4l.3-.1c.7.2 1.6.1 2.5-.3a3.2 3.2 0 001.8-2.8c0-1-.6-1.5-2-1.5-1.6 0-3.2-.3-3.2-2.8 0-2 1-4.2 2.7-5.6v-2c0-.3.1-.5.3-.6z"/><path fill="#4da925" d="M54 54.7L48.5 58c-.1 0-.3 0-.3-.2v-1.2c0-.1 0-.2.2-.3L54 53c.1 0 .2 0 .2.2v1.2l-.1.3"/><path fill="#1f212b" d="M26.5 64.3h-.3l-2-1.2a.5.5 0 01.6-1l2 1.2a.5.5 0 01-.3 1zm-4-2.3l-.3-.1-11-6.4a.5.5 0 01.5-.9l11 6.4a.5.5 0 01-.2 1zm-13-7.5l-.3-.1-2-1.2A4.3 4.3 0 015 49.5V32a.5.5 0 011 0v17.4c0 1.1.6 2.2 1.6 2.8l2.1 1.2a.5.5 0 01-.2 1zm-4-24a.5.5 0 01-.5-.4v-3a.5.5 0 011 0v3c0 .2-.2.5-.5.5zm0-5a.5.5 0 01-.5-.4v-2.4a.5.5 0 011 0V25c0 .2-.2.5-.5.5z"/><path fill="#1f212b" d="M60.4 14.6L37 1.2a9.4 9.4 0 00-9.2 0L4.6 14.6a9.3 9.3 0 00-4.6 8v26.9c0 3.3 1.8 6.4 4.6 8L28 71a9.3 9.3 0 009.2 0l23.3-13.4a9.3 9.3 0 004.6-8V22.7c0-3.3-1.8-6.4-4.6-8zM28.9 69.2L5.6 55.8A7.3 7.3 0 012 49.5V22.7c0-2.6 1.4-5 3.6-6.3L29 3A7.3 7.3 0 0136 3l23.3 13.4c1 .6 1.9 1.4 2.5 2.4-1-.3-2-.3-2.8.2L35.6 32a7 7 0 00-3.6 6.2v30c0 .7.3 1.4.8 2-1.4 0-2.8-.3-4-1zm30.5-13.4L36 69.2c-.6.3-1.2.6-1.9.7l-.3-.1c-.6-.3-.9-1-.9-1.6v-30a6 6 0 013-5.3l23.6-13a2.3 2.3 0 012.3 0c.4.2.7.6.9 1l.2 1.8v26.8c0 2.6-1.4 5-3.6 6.3z"/></svg>
