<svg width="14px" height="14px" xmlns="http://www.w3.org/2000/svg" viewBox="0 0 512 512"><path d="M512 256a256 256 0 11-511 0 256 256 0 01511 0z" fill="#f2f2f2"/><path d="M447 285c-8 3-8 3-12-5-5-9-8-19-8-30 0-9 2-18 6-27 2-6-1-9-7-9h-13c-11 1-12 2-15 13-2 6-3 13-6 19l-24 43-5 8c-6-9-8-19-9-30 0-10 3-20 6-29 2-4 1-6-2-7l-4-1c-7-1-14-1-21 1-4 1-6 3-6 6l-7 20-23 54-22 46c-1 1-1 3-3 2l-1-3c0-9 2-17 4-26l10-39c1-4 0-7-3-8-5-3-10-3-14 0v-14c0-11-5-18-14-19-6-2-12 0-17 3-13 6-24 15-32 27l-4 3-49 27c-2 1-3 0-4-1-9-9-18-16-28-23-13-11-27-21-38-33-7-7-12-15-15-25-5-16-1-31 6-45 9-16 22-29 37-40 23-19 49-33 76-45 30-13 61-21 95-20 13 0 26 3 38 9 8 5 13 11 15 21 2 11-1 22-6 32-11 22-29 38-50 50a167 167 0 01-91 22c-12-2-24-7-33-17-1-1-2-2-4-1s-2 2-2 4l1 3c3 6 7 11 12 15 13 11 29 14 46 15 16 0 32-2 48-6 36-8 66-26 88-56 13-18 21-38 21-61-1-14-6-27-16-37a89 89 0 00-45-22c-18-5-37-5-56-3-16 2-32 5-48 11a429 429 0 00-132 76c-16 16-31 33-39 55-3 10-5 19-3 29 3 13 9 25 18 35 12 15 28 28 44 39 13 10 27 18 39 28 4 3 4 3 0 5l-15 8c-19 11-38 23-53 39-7 8-13 17-15 27 13 19 27 36 44 50 28-2 50-17 66-41 8-12 12-25 13-40 1-12 0-24-4-36 0-2-3-4-2-6s4-2 6-4l23-13-1 4c-4 16-7 33-4 51 2 11 6 21 13 30s23 8 29 0 10-17 14-26l7-15v17c0 6 1 12 4 17 3 6 10 8 16 4 7-3 12-9 15-15 15-26 29-53 41-81l8-19v5c3 13 8 26 14 38 2 3 2 4 0 7l-20 24-16 20c-4 7-2 13 5 15h7c12 0 24-3 34-9 14-8 23-20 22-37 0-8-2-15-5-22v-4c10-14 19-29 27-44l4-8 1 2c2 13 6 25 12 36 2 3 1 5-1 7-9 7-16 15-21 25-5 7-8 15-7 24 0 9 7 15 16 13 10-3 19-7 27-13 18-13 23-26 18-45-3-8-3-8 5-10a110 110 0 0156-1l2-19c-22-5-43-2-64 6zM99 419c-5 2-10 3-15 2-7 0-11-5-11-11 0-8 2-15 5-22 6-12 17-20 27-29l33-21c3-2 3-2 4 2 1 5 2 10 1 15 1 28-19 55-44 64zm153-141c-2 11-6 23-10 34l-18 45c-2 3-3 7-6 9-2 3-5 3-6 0-4-7-3-13-4-19 0-25 9-45 23-64 4-5 9-9 15-11 5-1 7 1 6 6zm97 74c-4 8-11 14-20 18-1 1-2 2-3 1l1-3 25-28h1l-4 12zm58 0h-4v-4c2-6 4-12 8-18 3-5 6-9 11-13 1-2 2-1 2 1l1 7c0 13-7 21-18 27z" fill="#cd6699"/></svg>
