<svg width="14px" height="14px" viewBox="-2 0 511 512" xmlns="http://www.w3.org/2000/svg"><linearGradient id="a" gradientUnits="userSpaceOnUse" x1="253.5" x2="253.5" y1="0" y2="512"><stop offset="0" stop-color="#2af598"/><stop offset="1" stop-color="#009efd"/></linearGradient><path d="M86 60c0-11 8-20 20-20h174v71c0 33 27 60 60 60h71v119h40V143L309 0H106C72 0 46 27 46 60v230h40zm234 51V68l63 63h-43c-11 0-20-9-20-20zm187 290v20c0 50-41 91-91 91h-1a91 91 0 010-182c13 0 26 3 37 8l-16 36c-6-3-13-4-21-4a51 51 0 1047 71h-42v-40zm-361 56c0 30-25 55-56 55H1v-40h89a16 16 0 000-31H56a56 56 0 010-111h69v40H56a16 16 0 000 31h34c31 0 56 25 56 56zm125-127h42l-62 182h-31l-63-182h42l36 104zm0 0" fill="url(#a)"/></svg>
