<svg width="14px" height="14px" xmlns="http://www.w3.org/2000/svg" viewBox="0 0 512 512"><path d="M128 0c-18 0-32 14-32 32v448c0 18 14 32 32 32h320c18 0 32-14 32-32V128L352 0H128z" fill="#e2e5e7"/><path d="M384 128h96L352 0v96c0 18 14 32 32 32z" fill="#b0b7bd"/><path fill="#cad1d8" d="M480 224l-96-96h96z"/><path d="M416 416c0 9-7 16-16 16H48c-9 0-16-7-16-16V256c0-9 7-16 16-16h352c9 0 16 7 16 16v160z" fill="#50bee8"/><g fill="#fff"><path d="M131 326l23-28c6-8 19 3 12 11l-24 29 27 33c7 9-8 18-14 9l-24-30-23 31c-7 9-21-2-14-10l26-33-24-29c-8-10 7-19 13-10l22 27zM201 328v47c0 6-4 9-9 9-4 0-8-3-8-9v-72c0-7 6-9 8-9 4 0 6 2 8 5l28 38 29-39c5-6 15-4 15 5v72c0 6-4 9-8 9s-8-3-8-9v-47l-21 27c-5 5-10 5-15 0l-19-27zM294 303c0-4 4-8 8-8s8 4 8 8v64h35c12 0 13 17 0 17h-43c-4 0-8-3-8-8v-73z"/></g><path d="M400 432H96v16h304c9 0 16-7 16-16v-16c0 9-7 16-16 16z" fill="#cad1d8"/></svg>
